<svg xmlns="http://www.w3.org/2000/svg" viewBox="0 0 512 512"><defs><clipPath id="a" clipPathUnits="userSpaceOnUse"><ellipse cx="372.3" cy="197.7" fill="#00f" stroke-width="1.5" rx="143.4" ry="216.1"/></clipPath></defs><circle cx="256" cy="256" r="256" fill="#393a59"/><path fill="#6a6577" d="M470 215c0 60-25 115-66 155a215 215 0 01-45 33 214 214 0 01-207 0 208 208 0 01-14-9 215 215 0 01-31-25A214 214 0 01255 0c119 0 215 96 215 215z"/><path fill="#393a59" d="M186 234c-12 2-22 10-26 23a34 34 0 00-2 13l1 5a28 28 0 00-2 0h-1c-12 0-23 4-31 12a42 42 0 00-7 9 42 42 0 00-3 8c-4 11-3 23 2 33a42 42 0 00-74-4 35 35 0 00-16-11 35 35 0 00-19-1 252 252 0 01-3-14l20-38 8 8c9 10 24 12 36 6l-10-20 6 1c11 3 21-3 26-12l2-6 10 20a31 31 0 0017-32l-1-11 4 1zm287 86c-1 3-5 3-6 1a35 35 0 00-18-17 34 34 0 00-13-3 34 34 0 00-5 0 38 38 0 000-3c1-11-3-23-10-31a41 41 0 00-9-8 42 42 0 00-7-4c-11-4-23-4-33 1a42 42 0 0011-73 37 37 0 00-2-1 35 35 0 0012-15 35 35 0 000-25c-1-3 2-5 5-3l44 28a3 3 0 010 4l-5 5a31 31 0 00-9 32c0 2 2 3 4 2l12-5c2-1 5 1 4 4-3 10 1 21 11 26 2 1 2 4-1 5l-12 5c-1 1-2 3-1 5a31 31 0 0019 15 31 31 0 0011 1l6-1a3 3 0 014 4l-1 1zM211 33c3 1 2 4 0 5a35 35 0 00-21 15 34 34 0 00-5 12 34 34 0 00-1 5 38 38 0 00-1 0 51 51 0 00-1-1c-11-3-23-2-33 4a41 41 0 00-9 7 42 42 0 00-5 6c-7 11-9 23-6 34h-1a42 42 0 00-70-24 35 35 0 00-12-14 35 35 0 00-25-5c-3 0-5-3-3-5l37-39a3 3 0 014 1l4 6a31 31 0 0030 15c1 0 3-1 2-3l-2-13c-1-2 2-4 4-3 9 5 21 2 28-6 1-2 5-1 5 1l3 13c0 2 2 3 4 2a31 31 0 0018-16 31 31 0 003-10l1-6a3 3 0 014-3l1 1z"/><path fill="#282942" d="M390 346l-46 37a3421 3421 0 01-32 24 4447 4447 0 01-28 21l-28 21s-77-56-127-98c-18 21-39 51-56 83a256 256 0 00183 78 256 256 0 00190-85c-15-30-34-56-50-74l-6-7z"/><path fill="#d863bb" d="M256 449s177-129 171-141a97 97 0 00-38-37c-23-13-46-16-46-16L202 375z"/><path fill="#d863bb" d="M256 449S79 320 85 308c10-17 24-29 38-37 23-13 46-16 46-16z"/><path fill="#282942" d="M256 449s177-129 171-141a97 97 0 00-38-37c15 16 28 40 7 61-3 4-7 6-11 7-14 5-27 12-38 23zm0 0S79 320 85 308c10-17 24-29 38-37-15 16-28 40-7 61 3 4 7 6 11 7 14 5 27 12 38 23z"/><path fill="#ededed" d="M362 380c-3 0-3 3 3 9 12 10 34 43 34 79a256 256 0 008-6l-1-7c-7-32-28-60-44-75zm-235 11l-1 1c-9 15-23 38-31 62a256 256 0 005 4c3-16 10-31 15-40 10-19 13-27 12-27z"/><g clip-path="url(#a)" transform="translate(-23 95) scale(.75287)"><path fill="#282942" d="M684 678c-6-7-9-20-12-33-3-14-7-28-18-38a46 46 0 00-7-5 44 44 0 00-7-3c16-46 10-92-6-133-19-50-52-94-78-124-28-36-56-71-56-121 1-77 9-220-127-220l-17 1C205 14 245 174 243 227c-3 40-11 71-38 109-32 37-76 98-97 162-10 30-15 60-11 89a68 68 0 00-4 4c-9 10-16 22-23 30-8 7-18 10-29 14s-23 10-31 24c-4 7-5 14-5 21l2 20c2 13 4 26 2 35-9 24-10 41-4 53s19 17 34 20c29 6 68 5 99 21l3-5-3 5c33 18 67 24 94 18 19-5 35-16 43-34 21 0 44-9 81-11 25-2 56 9 92 7l5 11c14 28 40 41 67 39 28-3 57-19 81-47l-4-4 4 4c23-28 60-39 85-54 13-8 23-17 24-31 0-13-8-29-26-49z"/><path fill="#f8bf11" d="M698 727c0 8-6 14-18 21-22 14-62 26-88 56-22 27-49 41-73 43s-44-8-56-32c-8-15-5-37 2-61 6-24 15-48 16-68 2-25 3-48 7-65 5-17 11-29 23-35l2-1c1 22 12 45 31 49 22 6 52-12 65-27h7c12 0 21 0 31 9 7 6 11 18 14 31s5 28 14 38c18 20 24 33 23 42zm-429 62c-2 27-17 41-40 47-23 5-54 0-86-17-34-18-76-16-102-22-13-3-22-7-26-14-4-8-4-22 4-45h1c4-13 1-27-1-40s-3-25 1-33v-1c6-11 14-15 25-18 10-4 23-7 33-17 9-10 16-22 24-30 6-7 13-12 23-12h6c14 2 26 12 37 27l33 60c8 18 27 38 42 58 16 21 28 41 26 57z"/><path fill="#f1fa8c" d="M433 233c-3-5-8-10-17-14-19-8-28-9-38-16a80 80 0 00-44-15c-6 0-11 1-16 3-15 5-24 15-30 21l-7 5-17 13c-7 5-10 12-7 20 2 8 10 18 25 26 8 5 15 12 22 18l11 7 16 4c15 0 26-4 36-10 10-5 19-12 28-15 20-7 34-19 38-31 2-6 2-11 0-16z"/><path fill="#ededed" d="M622 595h-7c6-16-6-29-38-43-33-15-59-13-63 16l-1 5a50 50 0 00-7 3c-16 8-24 24-29 42-4 19-6 42-7 67-1 13-6 31-11 49-54 38-129 55-192 12a282 282 0 00-24-33c6 0 12-1 16-3 6-3 10-7 11-12 4-10 0-25-12-42s-33-35-64-54a91 91 0 01-41-50c-6-19-5-39-1-59 9-39 32-76 46-99 4-3 1 5-15 34-14 27-41 90-4 138 1-34 9-69 23-103 20-45 63-125 66-188l10 6v1c8 4 14 11 21 17a52 52 0 0036 12c15 0 26-5 36-10 10-6 18-13 26-15 17-5 30-15 38-25 12 51 42 124 62 160 10 19 30 59 39 108l19 3c23-60-20-125-39-143-8-7-9-11-5-11 21 19 49 57 59 99 5 20 6 40 1 60l7 3c37 18 51 34 44 55z"/><path style="isolation:auto;mix-blend-mode:normal;solid-color:#000;solid-opacity:1" fill="#e6e6e6" d="M358 434a170 252 0 00-158 160l4 2c29 19 49 37 62 54 14 18 20 36 14 51v1c-3 7-9 13-17 17l-2 1 13 18c58 39 125 25 176-10 5-17 9-33 10-43 1-26 3-49 8-69s14-39 33-49l3-1a46 46 0 011-6 170 252 0 00-147-126zm146 132z" color="#000" overflow="visible"/><path fill="#ededed" d="M435 174a65 65 0 01-14 40l-3-1-10-4-8-3 7-8c2-4 3-9 3-15l-2-15-7-11c-3-3-6-4-10-4l-9 3c-3 3-6 6-8 11s-3 9-3 15v1l1 8-22-7-1-8v-1c0-10 2-19 6-28 4-8 8-15 15-20s13-7 21-7h1c7 0 14 2 21 7s11 11 15 20a64 64 0 017 27zm-117 10a64 64 0 00-17 8l1-9v-1l-3-12-6-8a10 10 0 00-8-3c-2 0-4 1-6 4-2 2-4 5-5 9l-1 13 1 1 2 11a23 23 0 008 10l-7 5-4 3c-4-3-8-8-10-14a65 65 0 01-3-48c2-8 6-13 10-18a22 22 0 0116-7c6 0 10 2 15 5 5 5 9 10 12 17a69 69 0 015 34z"/><path fill="#393a59" d="M344 205c1 2 4 2 6 3l5 2c2 1 5 0 5-2s-3-4-6-5h-9l-1 2zm-20 0c0 2-4 2-6 3l-5 2c-1 1-4 0-4-2-1-2 3-4 5-5h9c1 0 2 1 1 2z"/></g><path fill="#e87bc2" d="M298 441l-39 15a8 8 0 01-6 0l-39-15c-6-2-12 2-12 8v24c0 6 6 10 12 8l39-15a8 8 0 016 0l39 15c6 2 12-2 12-8v-24c0-6-6-10-12-8z"/><path fill="#393a59" d="M284 274c0 12-9 24-23 31-8 4-18 6-29 6s-22-2-30-6c-14-7-23-19-23-31a117 85 0 0015 4 116 84 0 0038 4l21-1a116 84 0 0016-3 117 85 0 0015-4z"/><path fill="#e87bc2" d="M261 305c-8 4-18 6-29 6s-22-2-30-6c8-5 19-7 30-7s21 2 29 7z"/><path fill="#f0f0f0" d="M267 278l-3 9-5 10-5-10-3-6a116 84 0 0016-3z"/><path fill="#e87bc2" d="M264 287l-5 10-5-10a15 11 0 015-1l5 1z"/><path fill="#f0f0f0" d="M209 281l-3 6-5 10-6-10-2-9a116 84 0 0016 3z"/><path fill="#e87bc2" d="M206 287l-5 10-6-10a15 11 0 016-1l5 1z"/></svg>